# xmcd
#
# Track frame offsets: 
#        150
#        17559
#        33248
#        41503
#        57510
#        68336
#        84348
#        99708
#        113520
#        126582
#        152975
#        175449
#        191264
#        207052
#        220516
#        229279
#        248910
#        264402
#        278071
#        283067
#        305752
#        321305
#        324072
#
# Disc length: 4748 seconds
#
# Revision: 0
# Processed by: cddbd v1.4PL0 Copyright (c) Steve Scherf et al.
# Submitted via: ExactAudioCopy v0.90a11
#
DISCID=41128a17
DTITLE=Wayne 'The Train' Hancock, 2002-01-05, csb, pcm-m1, DAT, - Beac
DTITLE=hland Ballroom Tavern, Cleveland, Ohio, wtth2002-01-05d01, 01, 
DTITLE=loadstone,
DYEAR=1900
DGENRE=
TTITLE0=, Juke Joint Jumpin',
TTITLE1=, Things I Should of Done,
TTITLE2=, No Lovin' Tonight,
TTITLE3=, Johnny Law,
TTITLE4=, Millers Jack and MadDog,
TTITLE5=, Viper,
TTITLE6=, Double A Daddy,
TTITLE7=, Flatland Boogie,
TTITLE8=, Route 23,
TTITLE9=, Freight Train,
TTITLE10=, Take Me Back Home,
TTITLE11=, Lousiana Blues,
TTITLE12=, 87 Southbound,
TTITLE13=, Rock The House Down,
TTITLE14=, Little Lisa,
TTITLE15=, Walkin' The Dog,
TTITLE16=, Misery,
TTITLE17=, Railroad Blues,
TTITLE18=, got no where else to go...,
TTITLE19=, Thunderstorms,
TTITLE20=, Loose Your Mind,
TTITLE21=, soothsayer of South Austin...,
TTITLE22=, Seen My Milkcow,
EXTD=
EXTT0=
EXTT1=
EXTT2=
EXTT3=
EXTT4=
EXTT5=
EXTT6=
EXTT7=
EXTT8=
EXTT9=
EXTT10=
EXTT11=
EXTT12=
EXTT13=
EXTT14=
EXTT15=
EXTT16=
EXTT17=
EXTT18=
EXTT19=
EXTT20=
EXTT21=
EXTT22=
PLAYORDER=
